<?xml version="1.0" encoding="utf-8"?>
<!-- Generator: Adobe Illustrator 14.0.0, SVG Export Plug-In . SVG Version: 6.00 Build 43363)  -->
<!DOCTYPE svg PUBLIC "-//W3C//DTD SVG 1.1//EN" "http://www.w3.org/Graphics/SVG/1.1/DTD/svg11.dtd">
<svg version="1.1" id="Calque_1" xmlns="http://www.w3.org/2000/svg" xmlns:xlink="http://www.w3.org/1999/xlink" x="0px" y="0px"
	 width="30px" height="30px" viewBox="0 0 30 30" style="enable-background:new 0 0 30 30;" xml:space="preserve">
<style type="text/css">
<![CDATA[
	.st0{fill-rule:evenodd;clip-rule:evenodd;fill:#0e72b4;}
]]>
</style>
<g>
	<path class="st0" d="M15,6.9c-4.5,0-8.1,3.6-8.1,8.1s3.6,8.1,8.1,8.1s8.1-3.6,8.1-8.1S19.5,6.9,15,6.9z M15,20.8
		c-3.2,0-5.8-2.6-5.8-5.8c0-3.2,2.6-5.8,5.8-5.8c3.2,0,5.8,2.6,5.8,5.8C20.8,18.2,18.2,20.8,15,20.8z"/>
	<g>
		<path class="st0" d="M15,0c-0.6,0-1.2,0.5-1.2,1.2v2.3c0,0.6,0.5,1.2,1.2,1.2c0.6,0,1.2-0.5,1.2-1.2V1.2C16.2,0.5,15.6,0,15,0z"/>
		<path class="st0" d="M15,25.4c-0.6,0-1.2,0.5-1.2,1.2v2.3c0,0.6,0.5,1.2,1.2,1.2c0.6,0,1.2-0.5,1.2-1.2v-2.3
			C16.2,25.9,15.6,25.4,15,25.4z"/>
	</g>
	<g>
		<path class="st0" d="M25.6,4.4c-0.5-0.5-1.2-0.5-1.6,0L22.3,6c-0.5,0.5-0.5,1.2,0,1.6c0.5,0.5,1.2,0.5,1.6,0L25.6,6
			C26.1,5.6,26.1,4.8,25.6,4.4z"/>
		<path class="st0" d="M7.7,22.3c-0.5-0.5-1.2-0.5-1.6,0L4.4,24c-0.5,0.5-0.5,1.2,0,1.6c0.5,0.5,1.2,0.5,1.6,0L7.7,24
			C8.1,23.5,8.1,22.8,7.7,22.3z"/>
	</g>
	<g>
		<path class="st0" d="M0,15c0,0.6,0.5,1.2,1.2,1.2h2.3c0.6,0,1.2-0.5,1.2-1.2c0-0.6-0.5-1.2-1.2-1.2H1.2C0.5,13.8,0,14.4,0,15z"/>
		<path class="st0" d="M25.4,15c0,0.6,0.5,1.2,1.2,1.2h2.3c0.6,0,1.2-0.5,1.2-1.2c0-0.6-0.5-1.2-1.2-1.2h-2.3
			C25.9,13.8,25.4,14.4,25.4,15z"/>
	</g>
	<g>
		<path class="st0" d="M4.4,4.4C3.9,4.8,3.9,5.6,4.4,6L6,7.7c0.5,0.5,1.2,0.5,1.6,0c0.5-0.5,0.5-1.2,0-1.6L6,4.4
			C5.6,3.9,4.8,3.9,4.4,4.4z"/>
		<path class="st0" d="M22.3,22.3c-0.5,0.5-0.5,1.2,0,1.6l1.6,1.6c0.5,0.5,1.2,0.5,1.6,0c0.5-0.5,0.5-1.2,0-1.6L24,22.3
			C23.5,21.9,22.8,21.9,22.3,22.3z"/>
	</g>
</g>
</svg>
